<svg width="640" height="640" viewBox="0 0 640 640" fill="none" xmlns="http://www.w3.org/2000/svg" role="img" aria-label="Proton">
  <defs>
    <radialGradient id="bg2" cx="50%" cy="40%" r="80%">
      <stop offset="0%" stop-color="#0F2138"/>
      <stop offset="60%" stop-color="#0A1320"/>
      <stop offset="100%" stop-color="#070D17"/>
    </radialGradient>
    <radialGradient id="nuc2" cx="38%" cy="34%" r="70%">
      <stop offset="0%" stop-color="#FFD98A"/>
      <stop offset="45%" stop-color="#F3AC40"/>
      <stop offset="100%" stop-color="#C9781A"/>
    </radialGradient>
    <radialGradient id="glow2" cx="50%" cy="50%" r="50%">
      <stop offset="0%" stop-color="#F3AC40" stop-opacity="0.5"/>
      <stop offset="60%" stop-color="#F3AC40" stop-opacity="0.10"/>
      <stop offset="100%" stop-color="#F3AC40" stop-opacity="0"/>
    </radialGradient>
    <filter id="soft2" x="-30%" y="-30%" width="160%" height="160%"><feGaussianBlur stdDeviation="7"/></filter>
  </defs>

  <rect width="640" height="640" rx="120" fill="url(#bg2)"/>

  <g transform="translate(320 268)">
    <circle r="180" fill="url(#glow2)"/>
    <g stroke="#2DD4BF" fill="none" stroke-width="3" opacity="0.85">
      <ellipse rx="175" ry="66"/>
      <ellipse rx="175" ry="66" transform="rotate(60)"/>
      <ellipse rx="175" ry="66" transform="rotate(120)"/>
    </g>
    <g fill="#2DD4BF">
      <circle cx="175" cy="0" r="11"/>
      <circle cx="-87.5" cy="151.6" r="11" transform="rotate(60)"/>
      <circle cx="-87.5" cy="-151.6" r="11" transform="rotate(120)"/>
    </g>
    <circle r="72" fill="#F3AC40" opacity="0.30" filter="url(#soft2)"/>
    <circle r="56" fill="url(#nuc2)"/>
    <g stroke="#1A1206" stroke-width="4.2" fill="none" stroke-linecap="round" stroke-linejoin="round">
      <circle cx="-15" cy="-15" r="7.5" fill="#1A1206" stroke="none"/>
      <circle cx="-15" cy="18" r="7.5" fill="#1A1206" stroke="none"/>
      <circle cx="18" cy="1.5" r="7.5" fill="#1A1206" stroke="none"/>
      <path d="M-7.5 -15 H5 a5 5 0 0 1 5 5 v2.5 m0 7.5 v2.5 a5 5 0 0 1 -5 5 H-7.5"/>
    </g>
  </g>

  <text x="320" y="540" text-anchor="middle" font-family="'Space Grotesk','Segoe UI',sans-serif" font-size="92" font-weight="700" fill="#FFFFFF" letter-spacing="-1">Proton</text>
  <text x="320" y="585" text-anchor="middle" font-family="'Space Grotesk','Segoe UI',sans-serif" font-size="23" font-weight="500" fill="#2DD4BF" letter-spacing="2">Make your own universe</text>
</svg>
